<svg xmlns="http://www.w3.org/2000/svg" viewBox="0 0 128 128"><defs><linearGradient id="g" x1="0" x2="1"><stop offset="0" stop-color="#0ea5e9"/><stop offset="1" stop-color="#22c55e"/></linearGradient></defs><rect width="128" height="128" rx="24" fill="#0b1220"/><path d="M24 72c0-16 16-28 40-28s40 12 40 28v20a8 8 0 0 1-8 8H32a8 8 0 0 1-8-8V72z" fill="url(#g)" opacity=".3"/><path d="M36 76h56a12 12 0 0 1 12 12v0a8 8 0 0 1-8 8H32a8 8 0 0 1-8-8v0a12 12 0 0 1 12-12z" fill="url(#g)"/><circle cx="48" cy="100" r="8" fill="#0b1220"/><circle cx="80" cy="100" r="8" fill="#0b1220"/><path d="M44 56h40l8 12H36l8-12z" fill="url(#g)" opacity=".9"/></svg>
